<?xml version="1.0" encoding="utf-8"?>
<!-- Generator: Adobe Illustrator 26.3.1, SVG Export Plug-In . SVG Version: 6.00 Build 0)  -->
<svg version="1.1" id="Layer_1" xmlns="http://www.w3.org/2000/svg" xmlns:xlink="http://www.w3.org/1999/xlink" x="0px" y="0px"
	 viewBox="0 0 258 258" style="enable-background:new 0 0 258 258;" xml:space="preserve">
<style type="text/css">
	.st0{fill:#FDF4E8;}
	.st1{fill:none;stroke:#F097A9;stroke-width:6;}
	.st2{fill:#FFC9E0;}
	.st3{fill:none;stroke:#003447;}
	.st4{fill:#DD9EB9;}
	.st5{fill:#FF794D;}
	.st6{fill:#D186A6;}
	.st7{fill:#D34D1F;}
	.st8{fill:none;stroke:#003447;stroke-width:3;}
	.st9{fill:#FE5A22;}
	.st10{fill:#FFFFFF;stroke:#003447;stroke-width:3;}
	.st11{fill:#FFFFFF;}
	.st12{fill:#DAD3CA;}
	.st13{fill:#898989;}
	.st14{fill:none;}
</style>
<g>
	<path class="st0" d="M5,0h259.2c38.3,0,69.4,20.1,69.4,45v168c0,24.9-31.1,45-69.4,45H5c-38.3,0-69.4-20.1-69.4-45V45
		C-64.4,20.1-33.3,0,5,0z"/>
</g>
<path class="st1" d="M21.2,38.9c131.6-56.8,81.2,53.2,73.6,9.2c-3.9-22.7,47.6-21.1,56.5,16.1"/>
<path class="st1" d="M162.8,160c-3.7,3.3-9,6.1-13.8,7.4c-2.4,0.7-4.6,0.9-6.3,0.8c-1.7-0.1-2.6-0.6-3.1-1.1
	c-0.4-0.5-0.8-1.5-0.8-3.2c0.1-1.7,0.6-3.8,1.5-6.2c1.9-4.7,5.2-9.6,8.9-12.9c3.7-3.3,7.7-5.2,11.2-5.7c3.5-0.6,6.1,0.3,7.5,1.8
	c1.5,1.6,2.2,4.6,1.4,8.3C168.6,152.8,166.4,156.8,162.8,160z"/>
<path class="st1" d="M76.8,151.4c-5.3,1.5-12.4-7.5-15.8-20.1c-2-7.2-2.3-14-1.3-18.7"/>
<path class="st1" d="M142.3,169.9c29.6,20.2,53.3-8.9,72.9,2.8"/>
<path class="st2" d="M210.2,81.5c-11.6,15.4-33.6,18.5-49.1,6.9c-15.6-11.8-18.8-34-7-49.7l3.3-4.4c11.7-15.5,33.8-18.7,49.4-6.9
	c15.6,11.7,18.7,33.8,6.9,49.4L210.2,81.5z"/>
<path class="st3" d="M210.2,81.5c-11.6,15.4-33.6,18.5-49.1,6.9c-15.6-11.8-18.8-34-7-49.7l3.3-4.4c11.7-15.5,33.8-18.7,49.4-6.9
	c15.6,11.7,18.7,33.8,6.9,49.4L210.2,81.5z"/>
<path class="st4" d="M205.9,87.2l-15.7-15.1c0,0,9.8-11.3,12.9-19.6c3.8-10.4-0.9-28.8-0.9-28.8l14.9,12.4l5.9,15.4l-3.2,17.2
	L205.9,87.2z"/>
<path class="st3" d="M205.9,87.2l-15.7-15.1c0,0,9.8-11.3,12.9-19.6c3.8-10.4-0.9-28.8-0.9-28.8l14.9,12.4l5.9,15.4l-3.2,17.2
	L205.9,87.2z"/>
<path class="st5" d="M65.5,157.3l9.1,6.9l9.7,7.3L170.6,57l-19.4-13.4L65.5,157.3z"/>
<path class="st3" d="M65.5,157.3l9.1,6.9l9.7,7.3L170.6,57l-19.4-13.4L65.5,157.3z"/>
<path class="st6" d="M205.9,87.2l-7.7-8.2c0,0,9.9-12.1,13.6-20c4.6-9.8,0.8-27.8,0.8-27.8l6.2,8.2l3.9,12.5l-2.8,16.7L205.9,87.2z"
	/>
<path class="st3" d="M205.9,87.2l-7.7-8.2c0,0,9.9-12.1,13.6-20c4.6-9.8,0.8-27.8,0.8-27.8l6.2,8.2l3.9,12.5l-2.8,16.7L205.9,87.2z"
	/>
<path class="st7" d="M121.9,200.8l-9.1-6.8l-9.7-7.3l86.3-114.5l17.9,15.3L121.9,200.8z"/>
<path class="st3" d="M121.9,200.8l-9.1-6.8l-9.7-7.3l86.3-114.5l17.9,15.3L121.9,200.8z"/>
<path class="st8" d="M125.8,194.9c-7.3,9.7-22.7,6.3-25.1-5.7c-1.7-8.4-9.5-14.2-18-13.7c-12.5,0.8-20.3-13.4-12.8-23.3l89-118.1
	c11.7-15.5,33.7-18.6,49.3-6.9S226.7,61,215,76.5L125.8,194.9z"/>
<path class="st9" d="M104.4,184.9l-9.5-7.2l-10.1-7.6l85.4-113.4l19.7,14.8L104.4,184.9z"/>
<path class="st3" d="M104.4,184.9l-9.5-7.2l-10.1-7.6l85.4-113.4l19.7,14.8L104.4,184.9z"/>
<path class="st10" d="M134.6,66.3l15.8-21c0.5,0.3,1.2,0.7,2.1,1.2c2,1.1,4.8,2.7,7.9,4.6c6.3,3.7,14,8.5,19.6,12.7
	c5.8,4.3,12.6,10.5,18.1,15.7c2.7,2.6,5.1,4.9,6.8,6.5c0.7,0.7,1.3,1.3,1.8,1.7l-15.8,21c-0.4-0.4-0.9-0.9-1.5-1.5
	c-1.7-1.7-4.1-4-6.8-6.6c-5.5-5.2-12.4-11.5-18.3-15.9c-5.7-4.3-13.5-9.1-19.8-12.9c-3.2-1.9-6-3.5-8-4.6
	C135.7,66.8,135.1,66.5,134.6,66.3z"/>
<path class="st0" d="M175.2,90.8c0,0-5.7-4.9-9.5-7.8c-3.9-3-10.4-7.1-10.4-7.1l13.2-17.3c0,0,6.5,4.1,10.3,7
	c3.8,2.9,9.6,7.9,9.6,7.9L175.2,90.8z"/>
<path class="st3" d="M175.2,90.8c0,0-5.7-4.9-9.5-7.8c-3.9-3-10.4-7.1-10.4-7.1l13.2-17.3c0,0,6.5,4.1,10.3,7
	c3.8,2.9,9.6,7.9,9.6,7.9L175.2,90.8z"/>
<path class="st11" d="M58.5,230.2c-1.5,0.7-3.1-0.5-2.8-2.1L67,159.7c0.2-1.4,1.7-2.1,2.9-1.4c5.5,3.1,18.9,10.7,27.4,17.2
	c8.7,6.5,19.9,17.5,24.4,21.9c1,1,0.7,2.6-0.6,3.2L58.5,230.2z"/>
<path class="st3" d="M58.5,230.2c-1.5,0.7-3.1-0.5-2.8-2.1L67,159.7c0.2-1.4,1.7-2.1,2.9-1.4c5.5,3.1,18.9,10.7,27.4,17.2
	c8.7,6.5,19.9,17.5,24.4,21.9c1,1,0.7,2.6-0.6,3.2L58.5,230.2z"/>
<path class="st0" d="M67.1,225.5c-1.5,0.7-3.1-0.5-2.8-2.1l9.5-57.9c0.2-1.4,1.7-2.1,2.9-1.4c4.9,2.7,16,9.1,23.2,14.6
	c7.3,5.5,16.7,14.6,20.7,18.6c1,1,0.7,2.6-0.6,3.2L67.1,225.5z"/>
<path class="st3" d="M67.1,225.5c-1.5,0.7-3.1-0.5-2.8-2.1l9.5-57.9c0.2-1.4,1.7-2.1,2.9-1.4c4.9,2.7,16,9.1,23.2,14.6
	c7.3,5.5,16.7,14.6,20.7,18.6c1,1,0.7,2.6-0.6,3.2L67.1,225.5z"/>
<path class="st12" d="M94.1,212.3c-1.5,0.8-3.3-0.5-3-2.2c1-4.5,2.3-11.3,2.3-15.1c0-6-1.2-13.3-2.1-18.4c-0.4-1.9,2-3.3,3.5-2
	c5.1,4.6,13,11.5,15.8,13.6c2.9,2.2,6.5,5.6,8.6,7.6c0.9,0.9,0.7,2.5-0.4,3.1L94.1,212.3z"/>
<path class="st3" d="M94.1,212.3c-1.5,0.8-3.3-0.5-3-2.2c1-4.5,2.3-11.3,2.3-15.1c0-6-1.2-13.3-2.1-18.4c-0.4-1.9,2-3.3,3.5-2
	c5.1,4.6,13,11.5,15.8,13.6c2.9,2.2,6.5,5.6,8.6,7.6c0.9,0.9,0.7,2.5-0.4,3.1L94.1,212.3z"/>
<path class="st8" d="M56,229.8c-0.4,0.2-0.8-0.1-0.7-0.5l11.8-70.8c0.1-0.3,0.4-0.5,0.7-0.3c5.6,3.1,19.4,11,28.1,17.6
	c8.9,6.7,20.4,17.9,25,22.5c0.2,0.2,0.2,0.6-0.1,0.8L56,229.8z"/>
<path class="st13" d="M61.8,225.7l2.6-14.5c0,0,3.6,1.9,5.6,3.5c2.1,1.6,4.8,4.6,4.8,4.6L61.8,225.7z"/>
<path class="st3" d="M61.8,225.7l2.6-14.5c0,0,3.6,1.9,5.6,3.5c2.1,1.6,4.8,4.6,4.8,4.6L61.8,225.7z"/>
<path d="M66.7,223.5l1.8-9.9c0,0,2.4,1.3,3.8,2.4c1.4,1.1,3.3,3.1,3.3,3.1L66.7,223.5z"/>
<path class="st3" d="M66.7,223.5l1.8-9.9c0,0,2.4,1.3,3.8,2.4c1.4,1.1,3.3,3.1,3.3,3.1L66.7,223.5z"/>
<path class="st8" d="M56,229.8c-0.4,0.2-0.8-0.1-0.7-0.5l3.6-22.1c0.1-0.3,0.4-0.5,0.7-0.3c2.5,1.4,6.3,3.7,8.8,5.6
	c2.6,2,5.9,5,8,7.1c0.2,0.2,0.2,0.6-0.1,0.7L56,229.8z"/>
<ellipse transform="matrix(0.6018 -0.7986 0.7986 0.6018 -62.9049 132.5623)" class="st0" cx="101.5" cy="129.4" rx="20.3" ry="3.1"/>
<ellipse transform="matrix(0.6018 -0.7986 0.7986 0.6018 -35.0448 181.5329)" class="st0" cx="164.5" cy="125.9" rx="20.3" ry="3.5"/>
<ellipse transform="matrix(0.9734 -0.229 0.229 0.9734 -1.6532 42.9431)" class="st0" cx="184.2" cy="28.6" rx="8.5" ry="4"/>
<path class="st2" d="M210.2,81.5c-11.6,15.4-33.6,18.5-49.1,6.9c-15.6-11.8-18.8-34-7-49.7l3.3-4.4c11.7-15.5,33.8-18.7,49.4-6.9
	c15.6,11.7,18.7,33.8,6.9,49.4L210.2,81.5z"/>
<path class="st3" d="M210.2,81.5c-11.6,15.4-33.6,18.5-49.1,6.9c-15.6-11.8-18.8-34-7-49.7l3.3-4.4c11.7-15.5,33.8-18.7,49.4-6.9
	c15.6,11.7,18.7,33.8,6.9,49.4L210.2,81.5z"/>
<path class="st4" d="M205.9,87.2l-15.7-15.1c0,0,9.8-11.3,12.9-19.6c3.8-10.4-0.9-28.8-0.9-28.8l14.9,12.4l5.9,15.4l-3.2,17.2
	L205.9,87.2z"/>
<path class="st3" d="M205.9,87.2l-15.7-15.1c0,0,9.8-11.3,12.9-19.6c3.8-10.4-0.9-28.8-0.9-28.8l14.9,12.4l5.9,15.4l-3.2,17.2
	L205.9,87.2z"/>
<path class="st5" d="M65.5,157.3l9.1,6.9l9.7,7.3L170.6,57l-19.4-13.4L65.5,157.3z"/>
<path class="st3" d="M65.5,157.3l9.1,6.9l9.7,7.3L170.6,57l-19.4-13.4L65.5,157.3z"/>
<path class="st6" d="M205.9,87.2l-7.7-8.2c0,0,9.9-12.1,13.6-20c4.6-9.8,0.8-27.8,0.8-27.8l6.2,8.2l3.9,12.5l-2.8,16.7L205.9,87.2z"
	/>
<path class="st3" d="M205.9,87.2l-7.7-8.2c0,0,9.9-12.1,13.6-20c4.6-9.8,0.8-27.8,0.8-27.8l6.2,8.2l3.9,12.5l-2.8,16.7L205.9,87.2z"
	/>
<path class="st9" d="M109.2,188.5l-11.8-8.9l-12.6-9.5l85.4-113.4l24.4,18.4L109.2,188.5z"/>
<path class="st3" d="M109.2,188.5l-11.8-8.9l-12.6-9.5l85.4-113.4l24.4,18.4L109.2,188.5z"/>
<path class="st7" d="M121.9,200.8l-9.1-6.8l-9.7-7.3l86.3-114.5l17.9,15.3L121.9,200.8z"/>
<path class="st3" d="M121.9,200.8l-9.1-6.8l-9.7-7.3l86.3-114.5l17.9,15.3L121.9,200.8z"/>
<path class="st8" d="M125.8,194.9c-7.3,9.7-22.7,6.3-25.1-5.7c-1.7-8.4-9.5-14.2-18-13.7c-12.5,0.8-20.3-13.4-12.8-23.3l89-118.1
	c11.7-15.5,33.7-18.6,49.3-6.9S226.7,61,215,76.5L125.8,194.9z"/>
<path class="st10" d="M134.6,66.3l15.8-21c0.5,0.3,1.2,0.7,2.1,1.2c2,1.1,4.8,2.7,7.9,4.6c6.3,3.7,14,8.5,19.6,12.7
	c5.8,4.3,12.6,10.5,18.1,15.7c2.7,2.6,5.1,4.9,6.8,6.5c0.7,0.7,1.3,1.3,1.8,1.7l-15.8,21c-0.4-0.4-0.9-0.9-1.5-1.5
	c-1.7-1.7-4.1-4-6.8-6.6c-5.5-5.2-12.4-11.5-18.3-15.9c-5.7-4.3-13.5-9.1-19.8-12.9c-3.2-1.9-6-3.5-8-4.6
	C135.7,66.8,135.1,66.5,134.6,66.3z"/>
<path class="st0" d="M175.2,90.8c0,0-5.7-4.9-9.5-7.8c-3.9-3-10.4-7.1-10.4-7.1l13.2-17.3c0,0,6.5,4.1,10.3,7
	c3.8,2.9,9.6,7.9,9.6,7.9L175.2,90.8z"/>
<path class="st3" d="M175.2,90.8c0,0-5.7-4.9-9.5-7.8c-3.9-3-10.4-7.1-10.4-7.1l13.2-17.3c0,0,6.5,4.1,10.3,7
	c3.8,2.9,9.6,7.9,9.6,7.9L175.2,90.8z"/>
<path class="st11" d="M58.5,230.2c-1.5,0.7-3.1-0.5-2.8-2.1L67,159.7c0.2-1.4,1.7-2.1,2.9-1.4c5.5,3.1,18.9,10.7,27.4,17.2
	c8.7,6.5,19.9,17.5,24.4,21.9c1,1,0.7,2.6-0.6,3.2L58.5,230.2z"/>
<path class="st3" d="M58.5,230.2c-1.5,0.7-3.1-0.5-2.8-2.1L67,159.7c0.2-1.4,1.7-2.1,2.9-1.4c5.5,3.1,18.9,10.7,27.4,17.2
	c8.7,6.5,19.9,17.5,24.4,21.9c1,1,0.7,2.6-0.6,3.2L58.5,230.2z"/>
<path class="st0" d="M67.1,225.5c-1.5,0.7-3.1-0.5-2.8-2.1l9.5-57.9c0.2-1.4,1.7-2.1,2.9-1.4c4.9,2.7,16,9.1,23.2,14.6
	c7.3,5.5,16.7,14.6,20.7,18.6c1,1,0.7,2.6-0.6,3.2L67.1,225.5z"/>
<path class="st3" d="M67.1,225.5c-1.5,0.7-3.1-0.5-2.8-2.1l9.5-57.9c0.2-1.4,1.7-2.1,2.9-1.4c4.9,2.7,16,9.1,23.2,14.6
	c7.3,5.5,16.7,14.6,20.7,18.6c1,1,0.7,2.6-0.6,3.2L67.1,225.5z"/>
<path class="st12" d="M94.1,212.3c-1.5,0.8-3.3-0.5-3-2.2c1-4.5,2.3-11.3,2.3-15.1c0-6-1.2-13.3-2.1-18.4c-0.4-1.9,2-3.3,3.5-2
	c5.1,4.6,13,11.5,15.8,13.6c2.9,2.2,6.5,5.6,8.6,7.6c0.9,0.9,0.7,2.5-0.4,3.1L94.1,212.3z"/>
<path class="st3" d="M94.1,212.3c-1.5,0.8-3.3-0.5-3-2.2c1-4.5,2.3-11.3,2.3-15.1c0-6-1.2-13.3-2.1-18.4c-0.4-1.9,2-3.3,3.5-2
	c5.1,4.6,13,11.5,15.8,13.6c2.9,2.2,6.5,5.6,8.6,7.6c0.9,0.9,0.7,2.5-0.4,3.1L94.1,212.3z"/>
<path class="st8" d="M56,229.8c-0.4,0.2-0.8-0.1-0.7-0.5l11.8-70.8c0.1-0.3,0.4-0.5,0.7-0.3c5.6,3.1,19.4,11,28.1,17.6
	c8.9,6.7,20.4,17.9,25,22.5c0.2,0.2,0.2,0.6-0.1,0.8L56,229.8z"/>
<path class="st13" d="M61.8,225.7l2.6-14.5c0,0,3.6,1.9,5.6,3.5c2.1,1.6,4.8,4.6,4.8,4.6L61.8,225.7z"/>
<path class="st3" d="M61.8,225.7l2.6-14.5c0,0,3.6,1.9,5.6,3.5c2.1,1.6,4.8,4.6,4.8,4.6L61.8,225.7z"/>
<path d="M66.7,223.5l1.8-9.9c0,0,2.4,1.3,3.8,2.4c1.4,1.1,3.3,3.1,3.3,3.1L66.7,223.5z"/>
<path class="st3" d="M66.7,223.5l1.8-9.9c0,0,2.4,1.3,3.8,2.4c1.4,1.1,3.3,3.1,3.3,3.1L66.7,223.5z"/>
<path class="st8" d="M56,229.8c-0.4,0.2-0.8-0.1-0.7-0.5l3.6-22.1c0.1-0.3,0.4-0.5,0.7-0.3c2.5,1.4,6.3,3.7,8.8,5.6
	c2.6,2,5.9,5,8,7.1c0.2,0.2,0.2,0.6-0.1,0.7L56,229.8z"/>
<ellipse transform="matrix(0.6018 -0.7986 0.7986 0.6018 -62.9049 132.5623)" class="st0" cx="101.5" cy="129.4" rx="20.3" ry="3.1"/>
<ellipse transform="matrix(0.6018 -0.7986 0.7986 0.6018 -35.0448 181.5329)" class="st0" cx="164.5" cy="125.9" rx="20.3" ry="3.5"/>
<ellipse transform="matrix(0.9734 -0.229 0.229 0.9734 -1.6532 42.9431)" class="st0" cx="184.2" cy="28.6" rx="8.5" ry="4"/>
<path class="st14" d="M46-2h167c24.9,0,45,20.1,45,45v171c0,24.9-20.1,45-45,45H46c-24.9,0-45-20.1-45-45V43C1,18.1,21.1-2,46-2z"/>
</svg>
