<?xml version="1.0" encoding="utf-8"?>
<!-- Generator: Adobe Illustrator 26.3.1, SVG Export Plug-In . SVG Version: 6.00 Build 0)  -->
<svg version="1.1" id="Layer_1" xmlns="http://www.w3.org/2000/svg" xmlns:xlink="http://www.w3.org/1999/xlink" x="0px" y="0px"
	 viewBox="0 0 258 256" style="enable-background:new 0 0 258 256;" xml:space="preserve">
<style type="text/css">
	.st0{fill:#FDF4E8;}
	.st1{fill:none;stroke:#FFC9E0;stroke-width:6;}
	.st2{fill:#FFC9E0;}
	.st3{fill:none;stroke:#003447;}
	.st4{fill:#DD9EB9;}
	.st5{fill:#FF794D;}
	.st6{fill:#D186A6;}
	.st7{fill:#FE5A22;}
	.st8{fill:#D34D1F;}
	.st9{fill:none;stroke:#003447;stroke-width:3;}
	.st10{fill:#FFFFFF;stroke:#003447;stroke-width:3;}
	.st11{fill:#FFFFFF;}
	.st12{fill:#DAD3CA;}
	.st13{fill:#898989;}
	.st14{fill:none;}
</style>
<g>
	<path class="st0" d="M9-35.1h254c37.6,0,68,22.7,68,50.8v189.6c0,28-30.5,50.8-68,50.8H9c-37.6,0-68-22.7-68-50.8V15.7
		C-59-12.4-28.5-35.1,9-35.1z"/>
</g>
<g>
	<path class="st1" d="M217.3,165.4c-66,76.5-67.8-8.8-49.5,16.8c9.5,13.2-23.7,28-40.8,7.2"/>
	<path class="st1" d="M91.1,132.6c1.3-3.1,3.7-6.4,6.3-8.6c1.3-1.1,2.5-1.9,3.5-2.3c1-0.4,1.5-0.3,1.6-0.2c0.1,0.1,0.6,0.3,1,1.3
		c0.4,1,0.8,2.4,0.9,4.1c0.2,3.4-0.4,7.5-1.6,10.5c-1.3,3.1-3.2,5.4-5.1,6.7c-1.9,1.3-3.5,1.4-4.5,1c-1.1-0.4-2.3-1.8-2.9-4.2
		C89.7,138.5,89.9,135.5,91.1,132.6z"/>
	<path class="st1" d="M147.4,111.2c2.9-2.6,10.2,1,16.2,7.9c3.5,4,5.8,8.2,6.6,11.5"/>
	<path class="st1" d="M100.2,119.7c-25-3.7-31.1,22-47.1,20.7"/>
</g>
<g>
	<path class="st2" d="M98.5,195.7c0.3-15.3,13-27.5,28.3-27.2c15.5,0.3,27.9,13.2,27.6,28.7l-0.1,4.3c-0.3,15.4-13.1,27.7-28.5,27.4
		c-15.4-0.3-27.7-13.1-27.4-28.5L98.5,195.7z"/>
	<path class="st3" d="M98.5,195.7c0.3-15.3,13-27.5,28.3-27.2c15.5,0.3,27.9,13.2,27.6,28.7l-0.1,4.3c-0.3,15.4-13.1,27.7-28.5,27.4
		c-15.4-0.3-27.7-13.1-27.4-28.5L98.5,195.7z"/>
	<path class="st4" d="M98.6,190.1l17.1,2.4c0,0-1.1,11.8,0.8,18.6c2.4,8.4,14,18.1,14,18.1l-15.4-1.1l-10.9-7.2l-5.9-12.5
		L98.6,190.1z"/>
	<path class="st3" d="M98.6,190.1l17.1,2.4c0,0-1.1,11.8,0.8,18.6c2.4,8.4,14,18.1,14,18.1l-15.4-1.1l-10.9-7.2l-5.9-12.5
		L98.6,190.1z"/>
	<path class="st5" d="M156.3,79.7l-9-0.2l-9.6-0.2l-2.2,113.7l18.7-0.4L156.3,79.7z"/>
	<path class="st3" d="M156.3,79.7l-9-0.2l-9.6-0.2l-2.2,113.7l18.7-0.4L156.3,79.7z"/>
	<path class="st6" d="M98.6,190.1l8.8,1.7c0,0-0.7,12.4,0.6,19.2c1.6,8.5,12.4,18.3,12.4,18.3l-7.8-2.4l-8.3-6.2l-6-12L98.6,190.1z"
		/>
	<path class="st3" d="M98.6,190.1l8.8,1.7c0,0-0.7,12.4,0.6,19.2c1.6,8.5,12.4,18.3,12.4,18.3l-7.8-2.4l-8.3-6.2l-6-12L98.6,190.1z"
		/>
	<path class="st7" d="M114.2,80l11.5,0.2l12.3,0.2l-2.2,112.6l-23.7-0.5L114.2,80z"/>
	<path class="st3" d="M114.2,80l11.5,0.2l12.3,0.2l-2.2,112.6l-23.7-0.5L114.2,80z"/>
	<path class="st8" d="M99.8,78l9,0.2l9.6,0.2l-2.2,113.7l-18.6-1.5L99.8,78z"/>
	<path class="st3" d="M99.8,78l9,0.2l9.6,0.2l-2.2,113.7l-18.6-1.5L99.8,78z"/>
	<path class="st9" d="M100.4,83.6c0.2-9.4,11.4-14.2,18.3-7.8c5.1,4.7,13,4.8,18.3,0.4c7.4-6.2,18.8-0.8,18.6,8.8l-2.3,117.3
		c-0.3,15.2-12.9,27.3-28.1,27c-15.2-0.3-27.3-12.9-27-28.1L100.4,83.6z"/>
	<path class="st10" d="M153.8,170.8l-0.4,20.2c-0.4,0.1-1,0.1-1.6,0.2c-1.8,0.2-4.3,0.5-7.2,0.8c-5.8,0.5-12.9,1-18.4,1
		c-5.7-0.1-13-0.9-18.9-1.7c-2.9-0.4-5.5-0.8-7.4-1.1c-0.7-0.1-1.2-0.2-1.7-0.3l0.4-20.2c0.4,0.1,0.8,0.1,1.3,0.2
		c1.9,0.3,4.5,0.7,7.4,1.1c5.9,0.8,13.3,1.6,19.2,1.7c5.7,0.1,13-0.4,18.8-1c2.9-0.3,5.5-0.5,7.3-0.8
		C153.1,170.8,153.5,170.8,153.8,170.8z"/>
	<path class="st0" d="M116.7,173.5c0,0,5.9,0.5,9.7,0.6c3.9,0.1,10-0.2,10-0.2l-0.5,17.3c0,0-6.1,0.4-9.9,0.3
		c-3.8-0.1-9.8-0.6-9.8-0.6L116.7,173.5z"/>
	<path class="st3" d="M116.7,173.5c0,0,5.9,0.5,9.7,0.6c3.9,0.1,10-0.2,10-0.2l-0.5,17.3c0,0-6.1,0.4-9.9,0.3
		c-3.8-0.1-9.8-0.6-9.8-0.6L116.7,173.5z"/>
	<path class="st11" d="M126.5,30.3c0.8-1.4,2.8-1.4,3.5,0.1l24,48c0.6,1.2-0.2,2.7-1.5,2.9c-5.3,0.6-16.9,1.8-25,1.7
		c-8.3-0.2-20-1.8-25.3-2.6c-1.4-0.2-2.1-1.7-1.4-2.9L126.5,30.3z"/>
	<path class="st3" d="M126.5,30.3c0.8-1.4,2.8-1.4,3.5,0.1l24,48c0.6,1.2-0.2,2.7-1.5,2.9c-5.3,0.6-16.9,1.8-25,1.7
		c-8.3-0.2-20-1.8-25.3-2.6c-1.4-0.2-2.1-1.7-1.4-2.9L126.5,30.3z"/>
	<path class="st0" d="M123.2,37.4c0.8-1.4,2.8-1.4,3.5,0.1l20.2,40.4c0.6,1.2-0.2,2.7-1.5,2.8c-4.7,0.5-14.3,1.5-21.1,1.4
		c-6.9-0.1-16.7-1.5-21.4-2.2c-1.4-0.2-2.1-1.7-1.4-2.9L123.2,37.4z"/>
	<path class="st3" d="M123.2,37.4c0.8-1.4,2.8-1.4,3.5,0.1l20.2,40.4c0.6,1.2-0.2,2.7-1.5,2.8c-4.7,0.5-14.3,1.5-21.1,1.4
		c-6.9-0.1-16.7-1.5-21.4-2.2c-1.4-0.2-2.1-1.7-1.4-2.9L123.2,37.4z"/>
	<path class="st12" d="M111.9,58.6c0.8-1.6,3-1.5,3.7,0.1c1.5,3.3,3.5,7.7,5.2,9.9c2.5,3.4,6.1,7.1,9,9.9c1.4,1.4,0.3,3.9-1.7,3.7
		c-5.4-0.5-12.6-1.2-15.2-1.3c-2.6,0-6.2-0.5-8.5-0.8c-1.3-0.2-2-1.6-1.5-2.8L111.9,58.6z"/>
	<path class="st3" d="M111.9,58.6c0.8-1.6,3-1.5,3.7,0.1c1.5,3.3,3.5,7.7,5.2,9.9c2.5,3.4,6.1,7.1,9,9.9c1.4,1.4,0.3,3.9-1.7,3.7
		c-5.4-0.5-12.6-1.2-15.2-1.3c-2.6,0-6.2-0.5-8.5-0.8c-1.3-0.2-2-1.6-1.5-2.8L111.9,58.6z"/>
	<path class="st9" d="M128.6,29.6c0.2-0.4,0.7-0.3,0.9,0l24.7,49.8c0.2,0.3,0,0.7-0.4,0.7c-5.4,0.6-17.3,1.9-25.6,1.7
		c-8.5-0.2-20.5-1.9-25.9-2.7c-0.3,0-0.5-0.4-0.3-0.7L128.6,29.6z"/>
	<path class="st13" d="M126.9,34.1l5.1,10.5c0,0-3.2,0.4-5.2,0.4c-2.1,0-5.3-0.7-5.3-0.7L126.9,34.1z"/>
	<path class="st3" d="M126.9,34.1l5.1,10.5c0,0-3.2,0.4-5.2,0.4c-2.1,0-5.3-0.7-5.3-0.7L126.9,34.1z"/>
	<path d="M124.7,37.8l3.4,7.2c0,0-2.2,0.3-3.6,0.3c-1.4,0-3.6-0.5-3.6-0.5L124.7,37.8z"/>
	<path class="st3" d="M124.7,37.8l3.4,7.2c0,0-2.2,0.3-3.6,0.3c-1.4,0-3.6-0.5-3.6-0.5L124.7,37.8z"/>
	<path class="st9" d="M128.6,29.6c0.2-0.4,0.7-0.3,0.9,0l7.3,14.7c0.2,0.3-0.1,0.6-0.3,0.7c-2.3,0.2-5.4,0.5-7.7,0.4
		c-2.4,0-5.5-0.4-7.8-0.7c-0.3,0-0.5-0.4-0.3-0.7L128.6,29.6z"/>
</g>
<path class="st14" d="M44,0h169c24.9,0,45,20.1,45,45v166c0,24.9-20.1,45-45,45H44c-24.9,0-45-20.1-45-45V45C-1,20.1,19.1,0,44,0z"
	/>
</svg>
